<svg width="20" height="16" viewBox="0 0 20 16" fill="none" xmlns="http://www.w3.org/2000/svg">
<path d="M0.781981 8C0.781981 8.63705 1.03505 9.24801 1.48551 9.69847C1.93598 10.1489 2.54693 10.402 3.18399 10.402L11.7952 10.402L10.2999 11.8972C10.0768 12.1204 9.89973 12.3854 9.77895 12.6769C9.65817 12.9685 9.59601 13.2811 9.59601 13.5967C9.59601 13.9123 9.65817 14.2248 9.77895 14.5164C9.89973 14.808 10.0768 15.0729 10.2999 15.2961C10.5231 15.5193 10.788 15.6963 11.0796 15.8171C11.3712 15.9378 11.6837 16 11.9993 16C12.315 16 12.6275 15.9378 12.9191 15.8171C13.2107 15.6963 13.4756 15.5193 13.6988 15.2961L19.2954 9.69942C19.5188 9.47634 19.6959 9.21143 19.8168 8.91983C19.9377 8.62823 19.9999 8.31566 19.9999 8C19.9999 7.68434 19.9377 7.37178 19.8168 7.08018C19.6959 6.78858 19.5188 6.52367 19.2954 6.30059L13.6988 0.703924C13.4756 0.480753 13.2107 0.303723 12.9191 0.182944C12.6275 0.0621649 12.315 2.03264e-06 11.9993 1.96131e-06C11.6837 1.88998e-06 11.3712 0.0621674 11.0796 0.182946C10.788 0.303725 10.5231 0.480753 10.2999 0.703923C10.0768 0.927093 9.89973 1.19204 9.77895 1.48362C9.65817 1.77521 9.59601 2.08773 9.59601 2.40334C9.59601 2.71895 9.65817 3.03147 9.77895 3.32306C9.89973 3.61464 10.0768 3.87958 10.2999 4.10275L11.7952 5.598L3.18399 5.598C2.54694 5.598 1.93598 5.85107 1.48551 6.30153C1.03505 6.75199 0.781981 7.36295 0.781981 8Z" fill="#0D7007"/>
</svg>
