<svg width="154" height="154" viewBox="0 0 154 154" fill="none" xmlns="http://www.w3.org/2000/svg">
<path d="M41.4577 96.7181L36.3363 101.839L43.579 101.839L88.9671 101.839C91.5293 101.839 93.9865 102.857 95.7982 104.669C97.6099 106.481 98.6277 108.938 98.6277 111.5C98.6277 114.062 97.6099 116.519 95.7982 118.331C93.9865 120.143 91.5293 121.161 88.9671 121.161L43.579 121.161L36.3363 121.161L41.4577 126.282L49.3389 134.163C50.2366 135.061 50.9487 136.127 51.4345 137.299C51.9204 138.472 52.1704 139.73 52.1704 140.999C52.1704 142.269 51.9204 143.526 51.4345 144.699C50.9487 145.872 50.2366 146.937 49.3389 147.835C48.4412 148.733 47.3754 149.445 46.2025 149.931C45.0295 150.417 43.7724 150.667 42.5028 150.667C41.2333 150.667 39.9761 150.417 38.8032 149.931C37.6303 149.445 36.5645 148.733 35.6668 147.835L33.5455 149.956L35.6668 147.835L6.16766 118.336L6.16647 118.335C5.26828 117.438 4.55572 116.372 4.06956 115.199C3.5834 114.027 3.33316 112.77 3.33316 111.5C3.33316 110.23 3.5834 108.973 4.06956 107.801C4.55572 106.628 5.26828 105.562 6.16647 104.665L6.16766 104.664L35.6668 75.1649C36.5645 74.2672 37.6303 73.5551 38.8032 73.0692C39.9761 72.5834 41.2333 72.3333 42.5028 72.3333C43.7724 72.3333 45.0295 72.5834 46.2025 73.0692C47.3754 73.5551 48.4411 74.2672 49.3389 75.1649C50.2366 76.0626 50.9487 77.1284 51.4345 78.3013C51.9204 79.4742 52.1704 80.7313 52.1704 82.0009C52.1704 83.2705 51.9204 84.5276 51.4345 85.7006C50.9487 86.8735 50.2366 87.9392 49.3389 88.8369L41.4577 96.7181ZM112.542 57.2818L117.663 52.1605L110.421 52.1605L65.0324 52.1605C62.4702 52.1605 60.013 51.1427 58.2013 49.331C56.3896 47.5193 55.3718 45.0621 55.3718 42.5C55.3718 39.9378 56.3896 37.4807 58.2013 35.669C60.013 33.8572 62.4702 32.8394 65.0324 32.8394L110.421 32.8395L117.663 32.8395L112.542 27.7181L104.661 19.8369C103.763 18.9392 103.051 17.8735 102.565 16.7005C102.079 15.5276 101.829 14.2705 101.829 13.0009C101.829 11.7313 102.079 10.4742 102.565 9.30129C103.051 8.12836 103.763 7.06258 104.661 6.16489C105.558 5.26719 106.624 4.55507 107.797 4.06925L106.649 1.2976L107.797 4.06923C108.97 3.58338 110.227 3.33332 111.497 3.33332C112.766 3.33332 114.023 3.58338 115.196 4.06923L116.344 1.2976L115.196 4.06925C116.369 4.55506 117.435 5.26718 118.333 6.1649L147.832 35.664L147.833 35.6651C148.731 36.5624 149.444 37.6278 149.93 38.8006C150.416 39.9734 150.666 41.2304 150.666 42.5C150.666 43.7695 150.416 45.0266 149.93 46.1994C149.444 47.3722 148.731 48.4376 147.833 49.3348L147.832 49.336L118.333 78.8351C117.435 79.7328 116.369 80.4449 115.196 80.9307C114.023 81.4166 112.766 81.6667 111.497 81.6667C110.227 81.6667 108.97 81.4166 107.797 80.9307C106.624 80.4449 105.558 79.7328 104.661 78.8351C103.763 77.9374 103.051 76.8716 102.565 75.6987C102.079 74.5258 101.829 73.2686 101.829 71.9991C101.829 70.7295 102.079 69.4724 102.565 68.2994C103.051 67.1265 103.763 66.0608 104.661 65.1631L112.542 57.2818Z" fill="white" stroke="#B0B6C1" stroke-width="6"/>
</svg>
