<svg width="36" height="29" viewBox="0 0 36 29" fill="none" xmlns="http://www.w3.org/2000/svg">
<path d="M35.1667 3.78363C33.8791 4.35483 32.495 4.74071 31.0427 4.91431C32.5251 4.02565 33.6638 2.61848 34.1999 0.94163C32.8123 1.76466 31.2756 2.3621 29.6399 2.6841C28.3302 1.28848 26.464 0.416626 24.3986 0.416626C20.4331 0.416626 17.2178 3.63155 17.2178 7.59706C17.2178 8.15986 17.2814 8.70797 17.4039 9.23349C11.436 8.93407 6.14505 6.07526 2.60339 1.73088C1.98529 2.79138 1.63109 4.02478 1.63109 5.34079C1.63109 7.83209 2.89879 10.0299 4.82555 11.3176C3.64849 11.2803 2.54127 10.9572 1.57317 10.4195C1.57235 10.4494 1.57235 10.4795 1.57235 10.5098C1.57235 13.9888 4.04756 16.8908 7.33249 17.5509C6.72996 17.7151 6.09558 17.8027 5.44073 17.8027C4.97803 17.8027 4.52829 17.7576 4.08973 17.6739C5.00358 20.5266 7.65536 22.6026 10.7977 22.6604C8.34014 24.5864 5.24403 25.7344 1.87965 25.7344C1.30005 25.7344 0.7285 25.7003 0.166748 25.634C3.34458 27.6715 7.11898 28.8603 11.1741 28.8603C24.3819 28.8603 31.6047 17.9188 31.6047 8.42954C31.6047 8.11821 31.5977 7.80863 31.5838 7.50046C32.9866 6.48826 34.204 5.22371 35.1666 3.78363H35.1667Z" fill="#2AA9E0"/>
<path d="M35.1667 3.78363C33.8791 4.35483 32.495 4.74071 31.0427 4.91431C32.5251 4.02565 33.6638 2.61848 34.1999 0.94163C32.8123 1.76466 31.2756 2.3621 29.6399 2.6841C28.3302 1.28848 26.464 0.416626 24.3986 0.416626C20.4331 0.416626 17.2178 3.63155 17.2178 7.59706C17.2178 8.15986 17.2814 8.70797 17.4039 9.23349C11.436 8.93407 6.14505 6.07526 2.60339 1.73088C1.98529 2.79138 1.63109 4.02478 1.63109 5.34079C1.63109 7.83209 2.89879 10.0299 4.82555 11.3176C3.64849 11.2803 2.54127 10.9572 1.57317 10.4195C1.57235 10.4494 1.57235 10.4795 1.57235 10.5098C1.57235 13.9888 4.04756 16.8908 7.33249 17.5509C6.72996 17.7151 6.09558 17.8027 5.44073 17.8027C4.97803 17.8027 4.52829 17.7576 4.08973 17.6739C5.00358 20.5266 7.65536 22.6026 10.7977 22.6604C8.34014 24.5864 5.24403 25.7344 1.87965 25.7344C1.30005 25.7344 0.7285 25.7003 0.166748 25.634C3.34458 27.6715 7.11898 28.8603 11.1741 28.8603C24.3819 28.8603 31.6047 17.9188 31.6047 8.42954C31.6047 8.11821 31.5977 7.80863 31.5838 7.50046C32.9866 6.48826 34.204 5.22371 35.1666 3.78363H35.1667Z" fill="black"/>
</svg>
