<svg width="16" height="17" viewBox="0 0 16 17" fill="none" xmlns="http://www.w3.org/2000/svg">
<path d="M9.2525 5.5H2.7475C1.78238 5.5 1 6.28238 1 7.2475V13.7525C1 14.7176 1.78238 15.5 2.7475 15.5H9.2525C10.2176 15.5 11 14.7176 11 13.7525V7.2475C11 6.28238 10.2176 5.5 9.2525 5.5Z" fill="#C5C8CC"/>
<path d="M13.25 1.5H6.75C6.28587 1.5 5.84075 1.68437 5.51256 2.01256C5.18437 2.34075 5 2.78587 5 3.25V3.715C5 3.92319 5.08271 4.12286 5.22992 4.27008C5.37714 4.41729 5.5768 4.5 5.785 4.5H9.25C9.97935 4.5 10.6788 4.78973 11.1945 5.30546C11.7103 5.82118 12 6.52065 12 7.25V10.715C12 10.9232 12.0827 11.1229 12.2299 11.2701C12.3771 11.4173 12.5768 11.5 12.785 11.5H13.25C13.7141 11.5 14.1592 11.3156 14.4874 10.9874C14.8156 10.6592 15 10.2141 15 9.75V3.25C15 2.78587 14.8156 2.34075 14.4874 2.01256C14.1592 1.68437 13.7141 1.5 13.25 1.5Z" fill="#C5C8CC"/>
</svg>
