<svg width="24" height="25" viewBox="0 0 24 25" fill="none" xmlns="http://www.w3.org/2000/svg">
<g clip-path="url(#clip0_1936_667)">
<rect y="0.5" width="24" height="24" rx="12" fill="white"/>
<path d="M12 0.5C18.628 0.5 24 5.87305 24 12.5C24 19.128 18.628 24.5 12 24.5C5.37305 24.5 0 19.1275 0 12.5C0 5.87305 5.37305 0.5 12 0.5Z" fill="#F5AC37"/>
<path d="M12.4423 13.3473H17.0021C17.0993 13.3473 17.1452 13.3473 17.1522 13.2198C17.1895 12.756 17.1895 12.2894 17.1522 11.825C17.1522 11.7348 17.1074 11.6976 17.0097 11.6976H7.93489C7.82257 11.6976 7.79233 11.7348 7.79233 11.8401V13.175C7.79233 13.3473 7.79233 13.3473 7.97215 13.3473H12.4423ZM16.643 10.1375C16.656 10.1035 16.656 10.0662 16.643 10.0327C16.5669 9.86693 16.4767 9.70871 16.3719 9.56021C16.2143 9.30641 16.0285 9.07259 15.8168 8.86252C15.7169 8.73562 15.6014 8.62168 15.4718 8.52502C14.8227 7.97259 14.051 7.58163 13.2215 7.38507C12.803 7.29111 12.3754 7.24629 11.9466 7.25007H7.91923C7.80691 7.25007 7.79179 7.29489 7.79179 7.39263V10.0549C7.79179 10.1672 7.79179 10.1974 7.93435 10.1974H16.589C16.589 10.1974 16.6641 10.1823 16.6792 10.1375H16.6425H16.643ZM16.643 14.9073C16.5156 14.8933 16.3871 14.8933 16.2596 14.9073H7.94245C7.83013 14.9073 7.79233 14.9073 7.79233 15.0575V17.6603C7.79233 17.7802 7.79233 17.8104 7.94245 17.8104H11.7824C11.966 17.8245 12.1496 17.8115 12.3295 17.7732C12.8867 17.7332 13.4348 17.6122 13.9576 17.413C14.1477 17.3471 14.3313 17.2612 14.5046 17.1581H14.557C15.4572 16.6899 16.1883 15.9544 16.6495 15.0515C16.6495 15.0515 16.7019 14.9381 16.643 14.9084V14.9073ZM6.28518 19.1599V19.1151V17.3676V16.7752V15.0126C6.28518 14.9149 6.28518 14.9003 6.1653 14.9003H4.53772C4.44754 14.9003 4.41028 14.9003 4.41028 14.7804V13.3554H6.15018C6.24738 13.3554 6.28518 13.3554 6.28518 13.2279V11.818C6.28518 11.7278 6.28518 11.7057 6.1653 11.7057H4.53772C4.44754 11.7057 4.41028 11.7057 4.41028 11.5858V10.266C4.41028 10.1834 4.41028 10.1612 4.53016 10.1612H6.14262C6.25494 10.1612 6.28518 10.1612 6.28518 10.0187V5.97619C6.28518 5.85631 6.28518 5.82607 6.4353 5.82607H12.06C12.4682 5.84227 12.8738 5.88709 13.275 5.96107C14.1018 6.1139 14.8961 6.40928 15.6224 6.83102C16.1041 7.11453 16.5474 7.45689 16.9422 7.85109C17.2392 8.15944 17.507 8.49316 17.7446 8.84848C17.9806 9.20867 18.1766 9.59369 18.3305 9.99599C18.3494 10.1008 18.4499 10.1715 18.5546 10.1537H19.8971C20.0694 10.1537 20.0694 10.1537 20.0769 10.3189V11.549C20.0769 11.6689 20.0321 11.6992 19.9117 11.6992H18.8765C18.7717 11.6992 18.7415 11.6992 18.749 11.8342C18.7901 12.291 18.7901 12.7495 18.749 13.2063C18.749 13.3338 18.749 13.3489 18.8921 13.3489H20.0764C20.1288 13.4164 20.0764 13.4839 20.0764 13.5519C20.0839 13.6389 20.0839 13.7269 20.0764 13.8138V14.7216C20.0764 14.849 20.0391 14.8868 19.9263 14.8868H18.5087C18.4099 14.8679 18.3138 14.9311 18.2911 15.0294C17.9536 15.9069 17.4136 16.6937 16.7159 17.3244C16.461 17.5539 16.1932 17.7699 15.9135 17.9692C15.6132 18.142 15.3211 18.3218 15.0133 18.4644C14.4468 18.7192 13.8528 18.9072 13.2431 19.0265C12.6643 19.1302 12.0773 19.1772 11.4881 19.1691H6.28302V19.1615L6.28518 19.1599Z" fill="#FEFEFD"/>
</g>
<defs>
<clipPath id="clip0_1936_667">
<rect y="0.5" width="24" height="24" rx="12" fill="white"/>
</clipPath>
</defs>
</svg>
