<svg width="36" height="28" viewBox="0 0 36 28" fill="none" xmlns="http://www.w3.org/2000/svg">
<path d="M30.4622 3.08644C28.2314 2.06286 25.8393 1.30873 23.3381 0.876812C23.2926 0.868476 23.2471 0.889308 23.2236 0.930973C22.9159 1.47816 22.5752 2.19201 22.3365 2.7531C19.6463 2.35035 16.97 2.35035 14.335 2.7531C14.0963 2.17954 13.7431 1.47816 13.4341 0.930973C13.4106 0.890698 13.3651 0.869866 13.3196 0.876812C10.8198 1.30735 8.42761 2.06148 6.19545 3.08644C6.17613 3.09477 6.15956 3.10867 6.14857 3.12671C1.61111 9.90557 0.368116 16.5178 0.97789 23.0481C0.980649 23.08 0.998583 23.1106 1.02342 23.13C4.0171 25.3285 6.91699 26.6632 9.76303 27.5478C9.80858 27.5617 9.85684 27.5451 9.88583 27.5076C10.5591 26.5882 11.1592 25.6188 11.6737 24.5994C11.7041 24.5397 11.6751 24.4688 11.6131 24.4452C10.6612 24.0841 9.75475 23.6439 8.88286 23.1439C8.81389 23.1036 8.80837 23.005 8.87182 22.9578C9.05529 22.8203 9.23882 22.6772 9.41402 22.5328C9.44572 22.5064 9.48989 22.5008 9.52715 22.5175C15.2551 25.1327 21.4563 25.1327 27.1167 22.5175C27.154 22.4995 27.1982 22.505 27.2312 22.5314C27.4065 22.6758 27.59 22.8203 27.7748 22.9578C27.8383 23.005 27.8341 23.1036 27.7652 23.1439C26.8933 23.6536 25.9869 24.0841 25.0336 24.4438C24.9715 24.4674 24.9439 24.5397 24.9743 24.5994C25.4999 25.6174 26.1 26.5868 26.7608 27.5062C26.7884 27.5451 26.8381 27.5617 26.8836 27.5478C29.7435 26.6632 32.6433 25.3285 35.637 23.13C35.6632 23.1106 35.6798 23.0814 35.6826 23.0494C36.4123 15.4998 34.4602 8.94174 30.5077 3.12809C30.4981 3.10867 30.4816 3.09477 30.4622 3.08644ZM12.5291 19.0718C10.8046 19.0718 9.38365 17.4886 9.38365 15.5442C9.38365 13.5998 10.777 12.0166 12.5291 12.0166C14.2949 12.0166 15.7021 13.6137 15.6745 15.5442C15.6745 17.4886 14.2811 19.0718 12.5291 19.0718ZM24.1589 19.0718C22.4345 19.0718 21.0135 17.4886 21.0135 15.5442C21.0135 13.5998 22.4069 12.0166 24.1589 12.0166C25.9248 12.0166 27.3319 13.6137 27.3044 15.5442C27.3044 17.4886 25.9248 19.0718 24.1589 19.0718Z" fill="#5865F2"/>
<path d="M30.4622 3.08644C28.2314 2.06286 25.8393 1.30873 23.3381 0.876812C23.2926 0.868476 23.2471 0.889308 23.2236 0.930973C22.9159 1.47816 22.5752 2.19201 22.3365 2.7531C19.6463 2.35035 16.97 2.35035 14.335 2.7531C14.0963 2.17954 13.7431 1.47816 13.4341 0.930973C13.4106 0.890698 13.3651 0.869866 13.3196 0.876812C10.8198 1.30735 8.42761 2.06148 6.19545 3.08644C6.17613 3.09477 6.15956 3.10867 6.14857 3.12671C1.61111 9.90557 0.368116 16.5178 0.97789 23.0481C0.980649 23.08 0.998583 23.1106 1.02342 23.13C4.0171 25.3285 6.91699 26.6632 9.76303 27.5478C9.80858 27.5617 9.85684 27.5451 9.88583 27.5076C10.5591 26.5882 11.1592 25.6188 11.6737 24.5994C11.7041 24.5397 11.6751 24.4688 11.6131 24.4452C10.6612 24.0841 9.75475 23.6439 8.88286 23.1439C8.81389 23.1036 8.80837 23.005 8.87182 22.9578C9.05529 22.8203 9.23882 22.6772 9.41402 22.5328C9.44572 22.5064 9.48989 22.5008 9.52715 22.5175C15.2551 25.1327 21.4563 25.1327 27.1167 22.5175C27.154 22.4995 27.1982 22.505 27.2312 22.5314C27.4065 22.6758 27.59 22.8203 27.7748 22.9578C27.8383 23.005 27.8341 23.1036 27.7652 23.1439C26.8933 23.6536 25.9869 24.0841 25.0336 24.4438C24.9715 24.4674 24.9439 24.5397 24.9743 24.5994C25.4999 25.6174 26.1 26.5868 26.7608 27.5062C26.7884 27.5451 26.8381 27.5617 26.8836 27.5478C29.7435 26.6632 32.6433 25.3285 35.637 23.13C35.6632 23.1106 35.6798 23.0814 35.6826 23.0494C36.4123 15.4998 34.4602 8.94174 30.5077 3.12809C30.4981 3.10867 30.4816 3.09477 30.4622 3.08644ZM12.5291 19.0718C10.8046 19.0718 9.38365 17.4886 9.38365 15.5442C9.38365 13.5998 10.777 12.0166 12.5291 12.0166C14.2949 12.0166 15.7021 13.6137 15.6745 15.5442C15.6745 17.4886 14.2811 19.0718 12.5291 19.0718ZM24.1589 19.0718C22.4345 19.0718 21.0135 17.4886 21.0135 15.5442C21.0135 13.5998 22.4069 12.0166 24.1589 12.0166C25.9248 12.0166 27.3319 13.6137 27.3044 15.5442C27.3044 17.4886 25.9248 19.0718 24.1589 19.0718Z" fill="black"/>
</svg>
