<svg width="242" height="69" viewBox="0 0 242 69" fill="none" xmlns="http://www.w3.org/2000/svg">
<g style="mix-blend-mode:multiply">
<path d="M226.381 48.615C225.84 49.2825 225.333 49.983 224.751 50.6097C223.958 51.4615 223.144 52.2978 222.275 53.0681C220.343 54.7853 218.136 54.9522 215.836 53.9548C212.063 52.3191 209.757 49.3504 208.384 45.5804C207.276 42.536 207.498 39.4024 207.862 36.2843C208.419 31.5111 209.808 26.9998 212.54 22.9872C214.917 19.4985 217.98 16.9392 222.289 16.1669C224.385 15.7925 226.42 16.1107 228.424 16.7141C232.721 18.0103 236.811 19.7798 240.668 22.0733C241.866 22.7854 242.179 23.5363 241.91 24.9236C240.103 34.2993 238.309 43.6769 236.476 53.0468C235.845 56.2696 234.729 59.3198 232.916 62.0887C228.983 68.0901 222.772 70.3661 215.933 68.1833C214.161 67.6167 212.455 66.7901 210.805 65.9189C209.519 65.2398 209.338 64.5354 209.706 63.1559C210.047 61.8791 210.384 60.6004 210.784 59.3412C211.249 57.8762 211.822 57.7152 213.271 58.1556C214.928 58.6582 216.627 59.153 218.341 59.3257C221.116 59.6051 223.206 58.2507 224.72 55.9999C225.993 54.1062 226.628 51.9893 226.745 49.7172C226.763 49.3815 226.7 49.0419 226.675 48.7062C226.576 48.6752 226.478 48.6441 226.379 48.6131L226.381 48.615ZM218.479 41.203C218.479 44.6374 219.595 44.9148 220.435 44.616C223.041 43.6886 225.101 42.0102 226.942 40.033C227.267 39.6837 227.406 39.1171 227.52 38.6262C227.836 37.2777 228.103 35.9175 228.368 34.5574C228.824 32.2193 229.303 29.8831 229.677 27.5314C229.749 27.0774 229.536 26.2819 229.211 26.1131C227.622 25.2884 225.518 24.7063 223.857 26.2101C222.941 27.0405 222.11 28.0514 221.518 29.1303C219.543 32.7296 218.721 36.6549 218.477 41.201L218.479 41.203Z" fill="#63676F"/>
<path d="M0.999989 49.9325C1.55899 45.6444 2.04008 41.3446 2.69063 37.0701C4.01509 28.36 5.72911 19.7236 8.00991 11.2075C8.53386 9.24772 9.20388 7.3268 9.82911 5.39617C10.131 4.46288 10.8341 3.98361 11.7807 4.20287C14.4881 4.83154 17.1857 5.49901 19.8619 6.24604C20.6819 6.475 20.9157 7.21232 20.6956 8.06413C19.2932 13.4602 17.9005 18.8582 16.5099 24.2562C16.4222 24.5996 16.319 24.9489 16.3092 25.2981C16.2995 25.6222 16.2976 26.1053 16.4884 26.2372C16.7163 26.3963 17.25 26.3944 17.4818 26.2275C18.1031 25.7832 18.7264 25.2826 19.19 24.683C23.3172 19.3277 27.4114 13.9453 31.5133 8.57249C32.3392 7.49173 33.1514 6.40126 33.9889 5.33214C34.8245 4.2669 35.7516 4.09421 36.7333 4.979C38.6304 6.68843 40.4866 8.44831 42.2843 10.2606C43.229 11.2113 43.1316 11.8051 42.2395 12.7636C36.8599 18.5516 31.4919 24.3474 26.1064 30.1315C25.5357 30.7446 25.2961 31.3927 25.7207 32.1475C28.3015 36.7402 30.8375 41.3621 34.1467 45.4989C34.7505 46.2537 35.44 46.9464 36.1217 47.6352C37.1579 48.6849 37.2124 49.2709 36.0165 50.1654C33.9714 51.6943 31.8834 53.1729 29.737 54.5563C28.2801 55.4974 27.238 55.2684 26.0226 53.9859C24.0652 51.9194 22.5907 49.5134 21.4299 46.9483C19.9671 43.7177 18.6952 40.4016 17.2851 37.1477C17.0474 36.6005 16.6131 35.9757 16.1047 35.739C15.0393 35.2442 14.0888 35.9059 13.8863 37.1729C13.226 41.2825 12.5852 45.396 11.956 49.5095C11.7359 50.9454 11.5587 52.389 11.3931 53.8306C11.288 54.7504 10.7796 55.2296 9.89533 55.0453C7.9359 54.6378 5.99595 54.1333 4.04821 53.6657C3.95471 53.6424 3.87096 53.5823 3.77942 53.5532C1.13438 52.6917 1.11491 52.6645 0.996094 49.9325H0.999989Z" fill="#63676F"/>
<path d="M133.963 23.4936C134.247 23.6042 134.621 23.0939 134.835 22.8281C136.586 20.6491 138.472 18.6234 140.904 17.1584C143.035 15.8759 145.117 15.8487 147.201 17.2225C149.808 18.9397 152.065 21.0527 152.803 24.1417C153.191 25.7677 153.017 27.6188 152.714 29.301C151.481 36.0883 150.107 42.8523 148.762 49.6201C148.504 50.9143 148.166 52.1949 147.831 53.4717C147.515 54.6805 146.707 55.251 145.515 54.8998C143.195 54.2148 140.891 53.4581 138.622 52.6199C137.289 52.127 137.017 51.4169 137.33 49.9946C138.109 46.469 138.98 42.9609 139.664 39.416C140.299 36.1252 140.789 32.8033 141.226 29.4795C141.325 28.715 141.421 27.5295 140.786 27.091C140.151 26.6525 139.243 27.3685 138.655 27.7701C136.734 29.0837 134.872 30.4866 133.043 31.9243C131.925 32.8033 131.674 34.1577 131.46 35.4693C130.5 41.3912 129.553 47.315 128.62 53.2408C128.396 54.6572 127.94 55.1326 126.546 54.8222C124.308 54.3216 122.091 53.7084 119.896 53.0448C118.751 52.6994 118.221 51.8864 118.346 50.6582C118.78 46.4225 119.152 42.1712 119.804 37.9665C120.533 33.2535 121.468 28.5676 122.442 23.8972C123.85 17.1429 125.346 10.4061 127.693 3.89631C128.324 2.14613 128.992 1.76195 130.798 2.22181C132.926 2.7651 135.048 3.3569 137.141 4.02049C138.686 4.50945 138.879 5.11095 138.437 6.65934C136.943 11.8963 135.484 17.1449 134.025 22.3935C133.926 22.7505 133.647 23.3714 133.963 23.4956V23.4936Z" fill="#63676F"/>
<path d="M58.8908 47.6953C58.6415 48.0174 58.4097 48.3512 58.1429 48.6577C56.6587 50.3555 55.2719 52.1561 53.6494 53.7103C51.9081 55.3771 49.7286 55.5051 47.5783 54.5233C42.409 52.1658 39.4718 48.0174 39.0608 42.4778C38.5505 35.6013 40.023 29.0371 43.7802 23.1385C46.0688 19.547 49.1501 16.9372 53.5092 16.1611C56.1133 15.6974 58.6064 16.2678 61.0508 17.0731C64.8178 18.3129 68.3841 19.9952 71.7654 22.0616C73.5359 23.1444 73.7053 23.4975 73.1658 25.4495C71.5823 31.187 70.5266 37.0255 69.8313 42.9241C69.432 46.3216 69.2606 49.7482 69.0229 53.1632C68.9217 54.632 68.4601 55.1345 67.0129 54.8862C65.1664 54.5699 63.3297 54.178 61.5164 53.7123C60.1003 53.3494 59.5803 52.5714 59.4771 51.1181C59.3972 50.0043 59.294 48.8925 59.2005 47.7807C59.0973 47.7516 58.994 47.7225 58.8908 47.6934V47.6953ZM49.8221 41.106C49.8221 44.3521 50.9226 44.9245 51.8088 44.6083C54.3818 43.6885 56.4113 42.016 58.2519 40.0892C58.6006 39.7245 58.7447 39.1191 58.8694 38.5971C59.1888 37.2505 59.4576 35.8904 59.7225 34.5302C60.1782 32.1921 60.6262 29.8501 61.0547 27.5062C61.1794 26.8232 61.0411 26.2566 60.299 25.919C57.7241 24.7529 55.6614 25.2186 53.9357 27.4422C53.5014 28.001 53.1118 28.6044 52.7866 29.2312C50.9206 32.8111 50.0812 36.6549 49.8241 41.104L49.8221 41.106Z" fill="#63676F"/>
<path d="M186.614 23.416C187.118 22.8436 187.506 22.4245 187.872 21.9879C189.425 20.1504 191.115 18.4759 193.168 17.174C195.404 15.7575 197.59 15.775 199.826 17.1546C201.764 18.3498 203.32 19.9098 204.574 21.7997C205.772 23.6023 205.986 25.5504 205.694 27.644C204.506 36.1465 202.819 44.552 200.799 52.8935C200.346 54.7659 199.582 55.3208 197.728 54.8028C195.648 54.2226 193.61 53.4678 191.596 52.682C190.241 52.1523 189.857 51.2209 190.174 49.7889C190.977 46.1702 191.877 42.569 192.557 38.9289C193.172 35.6381 193.55 32.3027 194.017 28.9847C194.062 28.6685 194.035 28.3347 193.988 28.0185C193.838 26.9668 193.462 26.7243 192.481 27.1026C189.725 28.1679 187.45 29.9491 185.607 32.1863C184.939 32.9973 184.695 34.2295 184.468 35.3141C183.198 41.3388 182 47.381 180.757 53.4115C180.51 54.6126 179.931 55.1229 178.765 54.8338C176.324 54.2284 173.911 53.4969 171.527 52.7014C170.588 52.389 170.329 51.4984 170.489 50.5321C171.84 42.3536 173.192 34.1751 174.54 25.9966C175.002 23.1968 175.457 20.3949 175.913 17.595C176.127 16.2834 176.735 15.7828 178.067 16.0156C180.105 16.3726 182.14 16.7549 184.148 17.2419C185.734 17.6261 186.211 18.3828 186.24 20.0457C186.256 20.9498 186.283 21.854 186.326 22.7563C186.332 22.8999 186.445 23.0396 186.612 23.4179L186.614 23.416Z" fill="#63676F"/>
<path d="M110.175 34.0548C109.234 34.0548 108.291 34.082 107.351 34.0471C106.272 34.0083 105.833 33.4281 106.036 32.39C106.311 30.9988 106.651 29.6154 106.84 28.2125C106.946 27.4305 106.901 26.5981 106.745 25.822C106.573 24.9644 105.8 24.5084 105.048 24.9081C104.018 25.4572 102.92 26.0917 102.205 26.9765C99.3668 30.4807 98.021 34.5845 97.8379 39.0589C97.8028 39.9146 97.9703 40.8072 98.2001 41.6396C98.8604 44.0359 100.452 45.1205 102.96 44.9944C105.339 44.8741 107.518 44.0941 109.606 43.0094C110.915 42.3284 111.46 42.47 112.07 43.7894C112.65 45.0468 113.19 46.3274 113.661 47.6294C114.103 48.8498 113.766 49.8976 112.748 50.7455C109.637 53.3359 106.219 55.5226 102.031 54.9948C96.1667 54.2556 90.8221 52.2784 88.1517 46.3332C86.6325 42.9512 86.5838 39.3597 87.0863 35.7701C87.9161 29.854 90.08 24.4968 94.1956 20.0515C96.2212 17.8628 98.6228 16.165 101.698 15.9962C103.173 15.9166 104.717 16.2562 106.159 16.6617C109.207 17.5174 112.035 18.8892 114.464 20.9537C116.279 22.4963 117.804 24.3299 117.245 26.8678C116.801 28.8877 115.94 30.8281 115.159 32.7606C114.842 33.5445 114.072 33.9462 113.19 33.9636C112.185 33.985 111.18 33.9675 110.173 33.9675C110.173 33.9966 110.173 34.0238 110.173 34.0529L110.175 34.0548Z" fill="#63676F"/>
<path d="M156.299 34.4196C157.145 29.6309 158.251 24.8868 159.262 20.1271C159.429 19.3413 159.669 18.5671 159.91 17.7988C160.222 16.8053 160.937 16.1747 161.942 16.3862C164.593 16.9411 167.222 17.6105 169.834 18.3304C170.72 18.5749 170.886 19.353 170.689 20.23C169.918 23.6896 169.114 27.1434 168.432 30.6224C167.489 35.4305 166.611 40.2522 165.773 45.0798C165.288 47.8758 164.953 50.6951 164.531 53.5027C164.359 54.6436 163.596 55.185 162.439 54.9133C160.395 54.4341 158.348 53.9432 156.34 53.3378C154.34 52.7363 154.079 52.2473 154.221 50.1479C154.233 49.9869 155.407 39.4683 156.299 34.4215V34.4196Z" fill="#63676F"/>
<path d="M173.457 6.13349C173.42 9.93265 170.851 12.4628 167.068 12.4221C163.72 12.3872 161.529 9.98116 161.549 6.36245C161.568 2.94359 163.958 -0.0212291 166.665 0.000114531C170.039 0.0272791 173.679 2.14612 173.457 6.13349Z" fill="#63676F"/>
<path d="M73.1736 36.228C72.9009 38.3837 72.5074 39.4353 75.4427 39.9457C77.5015 40.3512 80.09 40.5898 82.1702 40.8693C83.3466 41.0264 83.8355 40.3628 84.0692 39.2083C84.303 38.0538 84.7217 35.023 84.8211 34.1984C84.9301 33.3059 84.6886 32.5472 83.7829 32.39C81.1126 31.9302 78.4305 31.5208 75.7368 31.2258C74.7181 31.1152 74.0676 31.8118 73.8553 32.8305C73.6897 33.6182 73.2612 35.4305 73.1716 36.2299" fill="#63676F"/>
</g>
</svg>
