<svg width="124" height="40" viewBox="0 0 124 40" fill="none" xmlns="http://www.w3.org/2000/svg">
<path fill-rule="evenodd" clip-rule="evenodd" d="M23.7275 20.0071H36.0724L29.4124 36.2753C28.4903 38.528 26.2976 40 23.8631 40H11.5181L18.1782 23.7319C19.1003 21.4791 21.293 20.0071 23.7275 20.0071Z" fill="#94C5FF"/>
<path fill-rule="evenodd" clip-rule="evenodd" d="M36.0723 20.008L28.5975 29.5134C27.4648 31.0224 25.7504 32.0033 23.7343 32.0033H14.7921L18.1873 23.7276C19.1105 21.4771 21.3027 20.0069 23.7354 20.0074L36.0723 20.008Z" fill="#1A32AF"/>
<path fill-rule="evenodd" clip-rule="evenodd" d="M19.6351 10.0084H31.98L25.32 26.2766C24.3979 28.5293 22.2052 30.0013 19.7707 30.0013H7.42572L14.0858 13.7331C15.0079 11.4804 17.2006 10.0084 19.6351 10.0084Z" fill="#0092FF"/>
<path fill-rule="evenodd" clip-rule="evenodd" d="M31.9799 10.0093L24.5051 19.5147C23.3724 21.0236 21.658 22.0046 19.6419 22.0046H10.6996L14.0949 13.7288C15.0181 11.4784 17.2103 10.0082 19.643 10.0087L31.9799 10.0093Z" fill="#1A32AF"/>
<path fill-rule="evenodd" clip-rule="evenodd" d="M15.5427 0H27.8876L21.2276 16.2682C20.3055 18.5209 18.1128 19.9929 15.6783 19.9929H3.33331L9.99338 3.72472C10.9155 1.472 13.1082 0 15.5427 0Z" fill="#0055FF"/>
<path fill-rule="evenodd" clip-rule="evenodd" d="M71.0525 35.4354C74.731 35.953 76.971 35.279 78.7062 33.5456C79.7956 32.4579 80.6236 31.1839 81.3547 29.8452C84.3149 24.428 91.4372 11.3404 91.4372 11.3404H86.3062L80.9716 22.0616L79.3068 11.3404H73.8539V11.5897C73.8539 11.5897 75.6998 21.405 76.6473 26.4349C76.7887 27.1845 76.9347 29.1135 75.5787 30.361C74.8199 31.0587 73.7241 31.6386 71.8366 31.3299L71.0525 35.4354Z" fill="#061027"/>
<path fill-rule="evenodd" clip-rule="evenodd" d="M66.9644 11.3402L62.005 22.5982L61.87 22.5869L61.1985 11.6192H55.796L50.5299 22.5995L50.3961 22.5528L50.1702 11.3402H45L46.0287 29.3235H51.6243L57.0444 17.5896L57.1719 17.6123L58.0315 29.3222H63.6624L71.8077 11.3402H66.9644Z" fill="#061027"/>
<path fill-rule="evenodd" clip-rule="evenodd" d="M96.8659 29.3239H91.4372C92.6466 23.2599 93.8018 17.3996 95.0107 11.3402H99.2196V14.6489C99.7828 13.2819 100.551 12.009 101.855 11.4504C103.135 10.9023 105.112 10.9311 107.128 11.5503C106.334 13.0881 105.729 14.4562 104.869 16.1209C104.094 15.9674 103.396 15.7712 102.686 15.7008C101.09 15.5422 99.9316 16.1786 99.3869 17.6916C99.0066 18.7481 98.7701 19.867 98.5404 20.9708C97.9645 23.7365 97.4296 26.5092 96.8659 29.3239ZM114.222 15.6171C114.998 14.6737 116.396 14.152 117.433 14.4769C118.699 14.8733 119.114 16.2761 118.215 17.2553C117.91 17.5877 117.484 17.8629 117.06 18.0222C115.754 18.5126 114.403 18.4976 112.981 18.253C113.222 17.2103 113.602 16.3701 114.222 15.6171ZM121.17 24.8536C121.17 24.8536 121.125 24.853 120.988 24.853C118.91 25.6505 116.604 25.8594 115.014 25.4087C113.257 24.9107 112.244 23.3822 112.563 21.6557C117.798 22.096 120.02 21.0995 121.213 20.3863C124.444 18.4538 125.266 13.2813 121.05 11.7499C117.345 10.4042 112.185 11.0442 109.747 13.9974C107.525 16.6887 106.873 19.6482 107.214 22.9425C107.469 25.4208 109.169 28.9736 114.722 29.5281C118.08 29.8634 120.23 29.0007 120.386 28.9361L121.17 24.8536Z" fill="#061027"/>
</svg>
