<svg width="56" height="56" viewBox="0 0 56 56" fill="none" xmlns="http://www.w3.org/2000/svg">
<rect width="56" height="56" rx="28" fill="#FF8643"/>
<path fill-rule="evenodd" clip-rule="evenodd" d="M19.5147 19.5147C20.0354 18.994 20.8796 18.994 21.4003 19.5147L36.4853 34.5997C37.006 35.1204 37.006 35.9646 36.4853 36.4853C35.9646 37.006 35.1204 37.006 34.5997 36.4853L19.5147 21.4003C18.994 20.8796 18.994 20.0354 19.5147 19.5147Z" fill="white"/>
<path fill-rule="evenodd" clip-rule="evenodd" d="M36.4853 19.5147C37.006 20.0354 37.006 20.8796 36.4853 21.4003L21.4003 36.4853C20.8796 37.006 20.0354 37.006 19.5147 36.4853C18.994 35.9646 18.994 35.1204 19.5147 34.5997L34.5997 19.5147C35.1204 18.994 35.9646 18.994 36.4853 19.5147Z" fill="white"/>
</svg>
