<svg width="26" height="26" viewBox="0 0 26 26" fill="none" xmlns="http://www.w3.org/2000/svg">
<g opacity="0.4">
<rect x="0.8125" y="0.8125" width="24.375" height="24.375" rx="12.1875" fill="white"/>
<g clip-path="url(#clip0_1535_1505)">
<path d="M16.9474 10.3552C16.6711 10.1974 16.3158 10.1974 16 10.3552L13.7895 11.6579L12.2895 12.4868L10.1184 13.7895C9.8421 13.9474 9.48684 13.9474 9.17105 13.7895L7.47368 12.7631C7.19737 12.6052 7 12.2895 7 11.9342V9.96051C7 9.64472 7.15789 9.32893 7.47368 9.13156L9.17105 8.14472C9.44737 7.98683 9.80263 7.98683 10.1184 8.14472L11.8158 9.17104C12.0921 9.32893 12.2895 9.64472 12.2895 9.99999V11.3026L13.7895 10.4342V9.09209C13.7895 8.7763 13.6316 8.46051 13.3158 8.26314L10.1579 6.40788C9.88158 6.24999 9.52632 6.24999 9.21053 6.40788L5.97368 8.30262C5.65789 8.46051 5.5 8.7763 5.5 9.09209V12.8026C5.5 13.1184 5.65789 13.4342 5.97368 13.6316L9.17105 15.4868C9.44737 15.6447 9.80263 15.6447 10.1184 15.4868L12.2895 14.2237L13.7895 13.3552L15.9605 12.0921C16.2368 11.9342 16.5921 11.9342 16.9079 12.0921L18.6053 13.0789C18.8816 13.2368 19.0789 13.5526 19.0789 13.9079V15.8816C19.0789 16.1974 18.9211 16.5131 18.6053 16.7105L16.9474 17.6974C16.6711 17.8552 16.3158 17.8552 16 17.6974L14.3026 16.7105C14.0263 16.5526 13.8289 16.2368 13.8289 15.8816V14.6184L12.3289 15.4868V16.7895C12.3289 17.1052 12.4868 17.421 12.8026 17.6184L16 19.4737C16.2763 19.6316 16.6316 19.6316 16.9474 19.4737L20.1447 17.6184C20.4211 17.4605 20.6184 17.1447 20.6184 16.7895V13.0395C20.6184 12.7237 20.4605 12.4079 20.1447 12.2105L16.9474 10.3552Z" fill="black"/>
</g>
<rect x="0.8125" y="0.8125" width="24.375" height="24.375" rx="12.1875" stroke="#E9EBED" stroke-width="0.375" style="mix-blend-mode:multiply"/>
</g>
<defs>
<clipPath id="clip0_1535_1505">
<rect width="15" height="15" fill="white" transform="translate(5.5 5.5)"/>
</clipPath>
</defs>
</svg>
