<svg width="31" height="36" viewBox="0 0 31 36" fill="none" xmlns="http://www.w3.org/2000/svg">
<path d="M24.1665 7.375H21.6665V14.875H24.1665V7.375Z" fill="#9146FF"/>
<path d="M24.1665 7.375H21.6665V14.875H24.1665V7.375Z" fill="black"/>
<path d="M14.7922 7.375H17.2922V14.875H14.7922V7.375Z" fill="#9146FF"/>
<path d="M14.7922 7.375H17.2922V14.875H14.7922V7.375Z" fill="black"/>
<path fill-rule="evenodd" clip-rule="evenodd" d="M6.66675 0.5L0.416748 6.75V29.25H7.91675V35.5L14.1667 29.25H19.1667L30.4168 18V0.5H6.66675ZM27.9167 16.75L22.9167 21.75H17.9167L13.5417 26.125V21.75H7.91675V3H27.9167V16.75Z" fill="#9146FF"/>
<path fill-rule="evenodd" clip-rule="evenodd" d="M6.66675 0.5L0.416748 6.75V29.25H7.91675V35.5L14.1667 29.25H19.1667L30.4168 18V0.5H6.66675ZM27.9167 16.75L22.9167 21.75H17.9167L13.5417 26.125V21.75H7.91675V3H27.9167V16.75Z" fill="black"/>
</svg>
