<svg width="32" height="32" viewBox="0 0 32 32" fill="none" xmlns="http://www.w3.org/2000/svg">
<path d="M16.1526 32C18.6181 32.0022 21.0521 31.4454 23.2715 30.3713C25.4908 29.2973 27.4377 27.734 28.9657 25.799C29.416 25.2346 29.6612 24.534 29.6612 23.8119C29.6612 23.0899 29.416 22.3893 28.9657 21.8249C26.8488 19.1527 23.9503 17.2084 20.6749 16.2634C20.5188 16.216 20.3799 16.1245 20.2747 15.9999C20.1695 15.8753 20.1026 15.7229 20.0821 15.5611C20.0616 15.3994 20.0883 15.2351 20.159 15.0882C20.2297 14.9413 20.3415 14.8179 20.4807 14.7331C21.9387 13.8029 23.0557 12.425 23.6641 10.8061C24.2725 9.18719 24.3395 7.41465 23.855 5.75446C23.3705 4.09427 22.3606 2.63598 20.977 1.59842C19.5934 0.560863 17.9106 0 16.1811 0C14.4517 0 12.7689 0.560863 11.3853 1.59842C10.0016 2.63598 8.99179 4.09427 8.50729 5.75446C8.0228 7.41465 8.08977 9.18719 8.69816 10.8061C9.30656 12.425 10.4236 13.8029 11.8815 14.7331C12.0179 14.819 12.1264 14.9425 12.194 15.0888C12.2616 15.2351 12.2853 15.3978 12.2624 15.5572C12.2394 15.7167 12.1707 15.8661 12.0646 15.9874C11.9585 16.1087 11.8196 16.1966 11.6646 16.2405C8.38497 17.1834 5.48217 19.1279 3.36229 21.802C2.91199 22.3664 2.66675 23.0671 2.66675 23.7891C2.66675 24.5111 2.91199 25.2117 3.36229 25.7761C4.88563 27.7123 6.82785 29.2781 9.04309 30.3561C11.2583 31.434 13.689 31.9961 16.1526 32Z" fill="#B0B6C1"/>
</svg>
