<svg width="24" height="25" viewBox="0 0 24 25" fill="none" xmlns="http://www.w3.org/2000/svg">
<g clip-path="url(#clip0_1936_881)">
<rect y="0.5" width="24" height="24" rx="12" fill="white"/>
<path d="M6.59548 24.5C12.78 24.5 12.78 24.4083 13.8286 24.0983C15.199 23.6932 9.95949 20.0815 6.59548 20.0815C3.23146 20.0815 0.504395 21.0706 0.504395 22.2907C0.504395 23.5109 3.2316 24.5 6.59548 24.5Z" fill="black"/>
<path d="M20.6385 5.71346L20.923 6.01872L20.6743 6.35355C12.6085 17.2134 7.96212 22.1305 5.9907 21.471C4.78991 21.0693 3.58568 19.8613 2.38143 18.1071C1.95814 17.4905 1.56065 16.8412 1.19914 16.1951C0.958407 15.7648 0.754648 15.3724 0.648851 15.1514C0.513896 14.8694 0.456918 14.6957 0.411714 14.4676C0.408955 14.4536 0.408955 14.4536 0.406335 14.4402C0.387467 14.3434 0.38094 14.3128 0.366836 14.2598C0.124134 13.3489 0 12.4052 0 11.4456C0 5.40052 4.92111 0.5 10.9916 0.5C12.8934 0.5 14.7261 0.981991 16.3503 1.88677L16.3923 1.9129C17.7221 2.83485 19.1365 4.10169 20.6385 5.71346ZM15.8365 2.75119C14.3671 1.9374 12.7115 1.50418 10.9916 1.50418C5.47803 1.50418 1.0084 5.95511 1.0084 11.4456C1.0084 12.3181 1.12115 13.1753 1.34152 14.0023C1.36331 14.0841 1.37316 14.1303 1.39628 14.2489C1.3987 14.2614 1.3987 14.2614 1.40104 14.2732C1.43021 14.4204 1.46099 14.5143 1.55913 14.7193C1.65565 14.9209 1.8496 15.2944 2.08004 15.7063C2.4275 16.3273 2.80933 16.951 3.2139 17.5404C4.30192 19.1252 5.38096 20.2077 6.31182 20.5191C7.55333 20.9344 12.2271 16.0076 19.6133 6.09277C18.2724 4.68326 17.0127 3.56939 15.8365 2.75119Z" fill="black"/>
<path d="M15.8364 2.75116C14.367 1.93736 12.7114 1.50415 10.9915 1.50415C5.47793 1.50415 1.0083 5.95508 1.0083 11.4456C1.0083 12.318 1.12105 13.1752 1.34141 14.0023C1.3632 14.0841 1.37306 14.1303 1.39618 14.2489C1.3986 14.2613 1.3986 14.2613 1.40093 14.2732C1.43011 14.4204 1.46089 14.5142 1.55903 14.7193C1.65554 14.9209 1.8495 15.2944 2.07994 15.7063C2.4274 16.3273 2.80922 16.951 3.2138 17.5403C4.30182 19.1252 5.38086 20.2077 6.31172 20.5191C7.55323 20.9344 12.227 16.0076 19.6132 6.09274C18.2723 4.68323 17.0126 3.56935 15.8364 2.75116Z" fill="#EC1C79"/>
<path d="M13.0084 24.3995C6.93795 24.3995 2.01685 19.499 2.01685 13.4539C2.01685 7.40882 6.93795 2.5083 13.0084 2.5083C19.0789 2.5083 24 7.40882 24 13.4539C24 19.499 19.0789 24.3995 13.0084 24.3995ZM13.0084 23.3953C18.522 23.3953 22.9916 18.9444 22.9916 13.4539C22.9916 7.96341 18.522 3.51248 13.0084 3.51248C7.49488 3.51248 3.02525 7.96341 3.02525 13.4539C3.02525 18.9444 7.49488 23.3953 13.0084 23.3953Z" fill="black"/>
<path d="M13.0083 23.3954C18.5219 23.3954 22.9915 18.9445 22.9915 13.454C22.9915 7.9635 18.5219 3.51257 13.0083 3.51257C7.49477 3.51257 3.02515 7.9635 3.02515 13.454C3.02515 18.9445 7.49477 23.3954 13.0083 23.3954Z" fill="white"/>
<path fill-rule="evenodd" clip-rule="evenodd" d="M5.54041 15.4904L4.21899 11.5259H5.37664L6.06558 13.8034L6.82793 11.5146H7.77099L8.53335 13.8034L9.22229 11.5259H10.3573L9.03593 15.4904H8.08158L7.28535 13.2242L6.49476 15.4904H5.54041ZM10.7922 15.4623V11.5259H13.9715V12.4538H11.8764V13.0498H13.7738V13.9102H11.8764V14.5344H13.9997V15.4623H10.7922ZM15.5244 15.4623V12.4819H14.3385V11.5259H17.8058V12.4819H16.6199V15.4623H15.5244ZM18.2858 15.4623V11.5259H19.3813V12.9992H20.7875V11.5259H21.883V15.4623H20.7875V13.9665H19.3813V15.4623H18.2858Z" fill="black"/>
<path d="M0.655059 10.3419C0.376106 10.203 0.263038 9.86525 0.402515 9.58747C0.541991 9.30968 0.881195 9.19709 1.16015 9.33598L2.77359 10.1393C3.05255 10.2782 3.16561 10.616 3.02614 10.8938C2.88666 11.1716 2.54746 11.2842 2.2685 11.1453L0.655059 10.3419Z" fill="black"/>
<path d="M0.469078 13.0059C0.185902 12.8758 0.062287 12.5417 0.192976 12.2597C0.323665 11.9777 0.659169 11.8546 0.942344 11.9848L2.55579 12.7263C2.83897 12.8564 2.96258 13.1905 2.83189 13.4725C2.7012 13.7545 2.3657 13.8776 2.08252 13.7474L0.469078 13.0059Z" fill="black"/>
</g>
<defs>
<clipPath id="clip0_1936_881">
<rect y="0.5" width="24" height="24" rx="12" fill="white"/>
</clipPath>
</defs>
</svg>
