<svg width="48" height="48" viewBox="0 0 48 48" fill="none" xmlns="http://www.w3.org/2000/svg">
<path d="M48 24C48 37.2541 37.2541 48 24 48C10.7459 48 0 37.2541 0 24C0 10.7459 10.7459 0 24 0C37.2569 0 48 10.7459 48 24Z" fill="#2081E2"/>
<path d="M11.8407 24.8064L11.9442 24.6437L18.1876 14.8767C18.2788 14.7337 18.4933 14.7485 18.5624 14.9038C19.6054 17.2414 20.5054 20.1486 20.0837 21.9584C19.9037 22.7031 19.4106 23.7116 18.8558 24.6437C18.7843 24.7793 18.7054 24.9125 18.6216 25.0407C18.5821 25.0998 18.5155 25.1344 18.444 25.1344H12.0231C11.8505 25.1344 11.7495 24.947 11.8407 24.8064Z" fill="white"/>
<path d="M39.6693 26.6213V28.1673C39.6693 28.256 39.615 28.335 39.5362 28.3695C39.0529 28.5766 37.3983 29.3361 36.7104 30.2928C34.9547 32.7363 33.6133 36.2304 30.6149 36.2304H18.1061C13.6726 36.2304 10.08 32.6254 10.08 28.1771V28.0341C10.08 27.9158 10.1761 27.8196 10.2945 27.8196H17.2677C17.4058 27.8196 17.5069 27.9478 17.4946 28.0834C17.4452 28.5372 17.5291 29.0007 17.7436 29.4224C18.1579 30.2632 19.016 30.7884 19.9431 30.7884H23.3952V28.0933H19.9825C19.8075 28.0933 19.7039 27.8911 19.805 27.7481C19.842 27.6914 19.8839 27.6322 19.9283 27.5656C20.2513 27.107 20.7124 26.3944 21.171 25.5831C21.4842 25.0358 21.7875 24.4513 22.0316 23.8645C22.0809 23.7585 22.1204 23.65 22.1598 23.5439C22.2264 23.3566 22.2954 23.1815 22.3448 23.0064C22.394 22.8585 22.4335 22.7031 22.473 22.5576C22.5889 22.0596 22.6382 21.5319 22.6382 20.9845C22.6382 20.7699 22.6283 20.5456 22.6086 20.331C22.5987 20.0968 22.5691 19.8625 22.5395 19.6283C22.5198 19.4212 22.4828 19.2165 22.4434 19.002C22.394 18.6888 22.325 18.3782 22.2461 18.065L22.219 17.9466C22.1598 17.7321 22.1105 17.5274 22.0414 17.3129C21.8467 16.6398 21.6222 15.9839 21.3856 15.3699C21.2993 15.1258 21.2006 14.8915 21.102 14.6573C20.9565 14.3047 20.8085 13.9841 20.673 13.6808C20.6039 13.5427 20.5447 13.417 20.4856 13.2888C20.419 13.1433 20.3499 12.9978 20.2809 12.8597C20.2316 12.7537 20.1748 12.6551 20.1354 12.5565L19.7138 11.7773C19.6546 11.6712 19.7532 11.5455 19.8691 11.5775L22.5075 12.2926H22.5149C22.5198 12.2926 22.5223 12.2951 22.5248 12.2951L22.8724 12.3912L23.2546 12.4997L23.3952 12.5392V10.971C23.3952 10.2139 24.0018 9.59998 24.7514 9.59998C25.1261 9.59998 25.4664 9.75283 25.7105 10.0019C25.9546 10.251 26.1075 10.5912 26.1075 10.971V13.2986L26.3886 13.3775C26.4108 13.3849 26.433 13.3948 26.4528 13.4096C26.5218 13.4614 26.6204 13.5378 26.7461 13.6315C26.8448 13.7104 26.9508 13.8066 27.079 13.9052C27.333 14.1099 27.6363 14.3737 27.9692 14.677C28.0579 14.7535 28.1443 14.8323 28.2232 14.9113C28.6522 15.3107 29.133 15.7792 29.5917 16.297C29.7199 16.4425 29.8457 16.5904 29.9739 16.7458C30.1021 16.9036 30.2377 17.059 30.3561 17.2143C30.5114 17.4214 30.6791 17.6359 30.8245 17.8603C30.8936 17.9664 30.9725 18.0749 31.0391 18.1809C31.2265 18.4645 31.3917 18.7579 31.5495 19.0513C31.6161 19.1869 31.6851 19.3349 31.7443 19.4803C31.9194 19.8724 32.0574 20.2719 32.1462 20.6713C32.1733 20.7576 32.1931 20.8513 32.2029 20.9352V20.9549C32.2325 21.0733 32.2424 21.199 32.2522 21.3272C32.2917 21.7365 32.272 22.1458 32.1832 22.5576C32.1462 22.7327 32.0969 22.8979 32.0377 23.073C31.9785 23.2407 31.9194 23.4157 31.8429 23.5809C31.695 23.9237 31.5199 24.2664 31.3128 24.587C31.2462 24.7053 31.1673 24.8311 31.0884 24.9494C31.0021 25.0752 30.9133 25.1936 30.8344 25.3095C30.7259 25.4574 30.61 25.6127 30.4917 25.7508C30.3857 25.8963 30.2771 26.0418 30.1588 26.17C29.9936 26.3648 29.8358 26.5497 29.6706 26.7273C29.572 26.8432 29.4659 26.9615 29.3574 27.0676C29.2514 27.1859 29.1429 27.2919 29.0443 27.3905C28.879 27.5558 28.741 27.684 28.6251 27.79L28.3538 28.0391C28.3144 28.0736 28.2626 28.0933 28.2084 28.0933H26.1075V30.7884H28.7508C29.3426 30.7884 29.9048 30.5788 30.3585 30.1942C30.5139 30.0585 31.192 29.4717 31.9933 28.5865C32.0204 28.5569 32.055 28.5347 32.0944 28.5248L39.3956 26.4141C39.5312 26.3746 39.6693 26.4782 39.6693 26.6213Z" fill="white"/>
</svg>
